<svg width="1240" height="220" viewBox="0 0 1240 220" fill="none" xmlns="http://www.w3.org/2000/svg">
  <defs>
    <linearGradient id="bg" x1="40" y1="24" x2="1200" y2="196" gradientUnits="userSpaceOnUse">
      <stop stop-color="#030E1D"/>
      <stop offset="1" stop-color="#132847"/>
    </linearGradient>
    <linearGradient id="link" x1="390" y1="110" x2="436" y2="110" gradientUnits="userSpaceOnUse">
      <stop stop-color="#6985B7"/>
      <stop offset="1" stop-color="#9DB0D5"/>
    </linearGradient>
    <filter id="shadow" x="0" y="0" width="1240" height="220" filterUnits="userSpaceOnUse" color-interpolation-filters="sRGB">
      <feDropShadow dx="0" dy="10" stdDeviation="16" flood-color="#020711" flood-opacity="0.28"/>
    </filter>
  </defs>

  <g filter="url(#shadow)">
    <rect x="12" y="12" width="1216" height="196" rx="30" fill="url(#bg)"/>
    <rect x="12.75" y="12.75" width="1214.5" height="194.5" rx="29.25" stroke="#D7E1F2" stroke-opacity="0.14" stroke-width="1.5"/>
  </g>

  <circle cx="1088" cy="72" r="64" fill="#0254EC" fill-opacity="0.08"/>
  <circle cx="1048" cy="174" r="42" fill="#F4AB40" fill-opacity="0.05"/>
  <circle cx="96" cy="182" r="56" fill="#F4AB40" fill-opacity="0.06"/>

  <rect x="88" y="48" width="812" height="124" rx="28" fill="#091527" fill-opacity="0.32"/>
  <rect x="88.75" y="48.75" width="810.5" height="122.5" rx="27.25" stroke="#D5E0F3" stroke-opacity="0.08" stroke-width="1.5"/>

  <rect x="114" y="70" width="244" height="80" rx="20" fill="#F5F9FF"/>
  <rect x="114.75" y="70.75" width="242.5" height="78.5" rx="19.25" stroke="#D9E5F6" stroke-width="1.5"/>
  <image x="148" y="91" width="176" height="38" preserveAspectRatio="xMidYMid meet" href="wiz-logo.svg"/>

  <path d="M376 110H426" stroke="url(#link)" stroke-width="4" stroke-linecap="round"/>
  <circle cx="444" cy="110" r="17" fill="#0D192B" stroke="#516A94" stroke-width="1.5"/>
  <path d="M437 110H451M444 103L451 110L444 117" stroke="#EAF1FB" stroke-width="2.5" stroke-linecap="round" stroke-linejoin="round"/>

  <rect x="474" y="70" width="378" height="80" rx="20" fill="#FFF8EF"/>
  <rect x="474.75" y="70.75" width="376.5" height="78.5" rx="19.25" stroke="#F3D7B1" stroke-width="1.5"/>
  <image x="506" y="89" width="314" height="42" preserveAspectRatio="xMinYMid meet" href="rootly-logo.png"/>
</svg>
